<svg xmlns="http://www.w3.org/2000/svg" width="413.181" height="66.845"><path d="M.238 2.272a17.958 17.958 0 012.353 14.416 1.449 1.449 0 001.972 1.714c3.265-1.42 8.628-5.236 11.448-15.539a1.479 1.479 0 00-1.294-1.841L1.574.002a1.472 1.472 0 00-1.336 2.27" fill="#c1da61"/><path d="M6.173 21.797a4.11 4.11 0 00-2.586 3.6v38.1a3.357 3.357 0 003.35 3.35h16.811a3.357 3.357 0 003.35-3.35V39.714a3.357 3.357 0 013.35-3.349h8.967a3.357 3.357 0 013.348 3.349v23.761a3.357 3.357 0 003.349 3.35H62.33a3.357 3.357 0 003.35-3.35v-40.7a3.333 3.333 0 00-2.565-3.244L22.836 9.819l-1.208-.254a3.861 3.861 0 00-4.031 1.717c-1.675 2.671-2.777 6.36-11.426 10.515m86.327 7.441a14.709 14.709 0 0111.255 4.81l-4.431 4.2a9.724 9.724 0 00-6.826-2.926c-4.685 0-7.7 3.5-7.7 7.929s3.01 7.929 7.7 7.929a9.814 9.814 0 006.826-2.926l4.284 4.194a14.906 14.906 0 01-11.108 4.812 13.777 13.777 0 01-14.225-14.012 13.777 13.777 0 0114.225-14.01zm25.736 0a13.731 13.731 0 0114.14 14.01 13.731 13.731 0 01-14.14 14.016 13.706 13.706 0 01-14.14-14.016 13.706 13.706 0 0114.14-14.01zm0 21.941c4.643 0 7.611-3.5 7.611-7.929s-2.968-7.929-7.611-7.929c-4.685 0-7.611 3.5-7.611 7.929 0 4.41 2.926 7.929 7.611 7.929zm41.847-21.072h17.383v5.681h-10.938v4.727h10.112v5.6h-10.112v4.727h11.426v5.512h-17.85V30.107zm22.726 0h6.784l10.2 15.582V30.107h6.381v26.266h-6.678l-10.242-15.624v15.624h-6.445V30.107zm38.943-.869h1.145l12.868 27.135h-6.911l-1.314-2.714h-10.367l-1.272 2.714h-6.911zm3.6 19.843l-3.01-6.657h-.085l-3.074 6.657zm12.384-18.974h6.784l10.2 15.582V30.107h6.381v26.266h-6.7l-10.241-15.624v15.624h-6.445V30.107zm33.962 5.7h-5.872v-5.7h18.3v5.681h-5.957v20.585h-6.487V35.807zm-127.091 8.016h.09l6.36-13.97h6.911l-12.788 27.135h-1.145l-12.868-27.135h6.911zm153.357-14.119h10.981a8.2 8.2 0 018.543 8.395 8.216 8.216 0 01-8.543 8.395h-4.6v9.455h-6.381zm10.367 11.3c1.654 0 2.586-1.526 2.586-3.074a2.546 2.546 0 00-2.586-2.756h-3.985v5.83zm12.443-11.3h6.445v20.754h11.426v5.512h-17.85V29.704zm32.775-.869h1.145L367.56 55.97h-6.911l-1.314-2.713h-10.367l-1.272 2.714h-6.911zm3.6 19.821l-3.01-6.657h-.102l-3.074 6.657zm23.811-19.821a14.709 14.709 0 0111.257 4.812l-4.431 4.2a9.724 9.724 0 00-6.826-2.926c-4.685 0-7.7 3.5-7.7 7.929s3.01 7.929 7.7 7.929a9.814 9.814 0 006.826-2.926l4.282 4.2a14.906 14.906 0 01-11.108 4.812 13.777 13.777 0 01-14.225-14.017 13.777 13.777 0 0114.225-14.013zm14.352.869h17.383v5.681h-10.938v4.727h10.112v5.6h-10.112v4.727h11.426v5.512h-17.85V29.704z" fill="#1077a9"/></svg>