<svg xmlns="http://www.w3.org/2000/svg" width="413.181" height="66.845" viewBox="0 0 413.181 66.845"><g transform="translate(0.002 0.002)"><g transform="translate(-0.003 -0.002)"><path d="M.236,2.27A17.958,17.958,0,0,1,2.589,16.686,1.449,1.449,0,0,0,4.561,18.4c3.265-1.42,8.628-5.236,11.448-15.539A1.479,1.479,0,0,0,14.715,1.02L1.572,0A1.472,1.472,0,0,0,.236,2.27" transform="translate(0.003 0.002)" fill="#c1da61"/><path d="M4.276,16.783a4.11,4.11,0,0,0-2.586,3.6v38.1a3.357,3.357,0,0,0,3.35,3.35H21.851a3.357,3.357,0,0,0,3.35-3.35V34.7a3.357,3.357,0,0,1,3.35-3.349h8.967A3.357,3.357,0,0,1,40.866,34.7V58.461a3.357,3.357,0,0,0,3.349,3.35H60.433a3.357,3.357,0,0,0,3.35-3.35v-40.7a3.333,3.333,0,0,0-2.565-3.244L20.939,4.805l-1.208-.254A3.861,3.861,0,0,0,15.7,6.268c-1.675,2.671-2.777,6.36-11.426,10.515" transform="translate(1.898 5.014)" fill="#1077a9"/></g><g transform="translate(78.271 28.833)"><g transform="translate(0 0.403)"><path d="M51.145,13.79A14.709,14.709,0,0,1,62.4,18.6l-4.431,4.2a9.724,9.724,0,0,0-6.826-2.926c-4.685,0-7.7,3.5-7.7,7.929s3.01,7.929,7.7,7.929a9.814,9.814,0,0,0,6.826-2.926L62.253,37a14.906,14.906,0,0,1-11.108,4.812A13.777,13.777,0,0,1,36.92,27.8,13.777,13.777,0,0,1,51.145,13.79Z" transform="translate(-36.92 -13.79)" fill="#1077a9"/><path d="M63.24,13.79A13.731,13.731,0,0,1,77.38,27.8,13.731,13.731,0,0,1,63.24,41.816,13.706,13.706,0,0,1,49.1,27.8,13.706,13.706,0,0,1,63.24,13.79Zm0,21.941c4.643,0,7.611-3.5,7.611-7.929s-2.968-7.929-7.611-7.929c-4.685,0-7.611,3.5-7.611,7.929C55.629,32.212,58.555,35.731,63.24,35.731Z" transform="translate(-23.279 -13.79)" fill="#1077a9"/><path d="M75.51,14.2H92.893v5.681H81.955v4.727H92.067v5.6H81.955v4.727H93.381v5.512H75.531V14.2Z" transform="translate(6.298 -13.331)" fill="#1077a9"/><path d="M86.23,14.2h6.784l10.2,15.582V14.2h6.381V40.466h-6.678L92.675,24.842V40.466H86.23V14.2Z" transform="translate(18.304 -13.331)" fill="#1077a9"/><path d="M111.342,13.79h1.145l12.868,27.135h-6.911l-1.314-2.714H106.763l-1.272,2.714H98.58Zm3.6,19.843-3.01-6.657h-.085l-3.074,6.657Z" transform="translate(32.135 -13.79)" fill="#1077a9"/><path d="M112.151,14.2h6.784l10.2,15.582V14.2h6.381V40.466h-6.7L118.575,24.842V40.466H112.13V14.2Z" transform="translate(47.31 -13.331)" fill="#1077a9"/><path d="M131.262,19.9H125.39V14.2h18.3v5.681h-5.957V40.466h-6.487V19.9Z" transform="translate(62.161 -13.331)" fill="#1077a9"/><path d="M75.31,28.05H75.4l6.36-13.97h6.911L75.883,41.215H74.738L61.87,14.08h6.911Z" transform="translate(-8.978 -13.465)" fill="#1077a9"/></g><g transform="translate(219.689)"><path d="M140.55,14.01h10.981a8.2,8.2,0,0,1,8.543,8.395,8.216,8.216,0,0,1-8.543,8.395h-4.6v9.455H140.55Zm10.367,11.3c1.654,0,2.586-1.526,2.586-3.074a2.546,2.546,0,0,0-2.586-2.756h-3.985v5.83Z" transform="translate(-140.55 -13.141)" fill="#1077a9"/><path d="M151.31,14.01h6.445V34.764h11.426v5.512h-17.85V14.01Z" transform="translate(-128.5 -13.141)" fill="#1077a9"/><path d="M173.512,13.6h1.145l12.868,27.135h-6.911L179.3,38.022H168.933l-1.272,2.714H160.75Zm3.6,19.821-3.01-6.657H174l-3.074,6.657Z" transform="translate(-117.927 -13.6)" fill="#1077a9"/><path d="M187.215,13.6a14.709,14.709,0,0,1,11.257,4.812l-4.431,4.2a9.724,9.724,0,0,0-6.826-2.926c-4.685,0-7.7,3.5-7.7,7.929s3.01,7.929,7.7,7.929a9.814,9.814,0,0,0,6.826-2.926l4.282,4.2a14.906,14.906,0,0,1-11.108,4.812A13.777,13.777,0,0,1,172.99,27.613,13.777,13.777,0,0,1,187.215,13.6Z" transform="translate(-104.219 -13.6)" fill="#1077a9"/><path d="M186.47,14.01h17.383v5.681H192.915v4.727h10.112v5.6H192.915v4.727h11.426v5.512h-17.85V14.01Z" transform="translate(-89.122 -13.141)" fill="#1077a9"/></g></g></g></svg>