<svg xmlns="http://www.w3.org/2000/svg" width="31" height="31" viewBox="0 0 31 31"><g transform="translate(-744 -357)"><path d="M759.5,357A15.5,15.5,0,1,0,775,372.5,15.5,15.5,0,0,0,759.5,357Zm7.75,23.235h-3.211v-5.025c0-1.2-.02-2.741-1.669-2.741-1.671,0-1.926,1.306-1.926,2.654v5.111h-3.208V369.9h3.079v1.412h.044a3.372,3.372,0,0,1,3.039-1.669c3.252,0,3.853,2.14,3.853,4.923Zm-13.636-15.471a1.862,1.862,0,1,1-1.864,1.862A1.862,1.862,0,0,1,753.614,364.765Zm1.606,5.137v10.334H752V369.9Z" fill="currentColor"/></g></svg>
