<svg xmlns="http://www.w3.org/2000/svg" width="32" height="32" viewBox="0 0 32 32"><g transform="translate(-20 -488)"><path d="M36,488a16,16,0,1,0,16,16A16,16,0,0,0,36,488Zm8,16.6a24.208,24.208,0,0,1-.16,2.59,3.459,3.459,0,0,1-.636,1.588,2.292,2.292,0,0,1-1.6.678c-2.239.162-5.6.167-5.6.167s-4.16-.038-5.44-.161a2.715,2.715,0,0,1-1.764-.684,3.459,3.459,0,0,1-.636-1.588A24.208,24.208,0,0,1,28,504.6v-1.213a24.208,24.208,0,0,1,.16-2.59,3.455,3.455,0,0,1,.636-1.588,2.287,2.287,0,0,1,1.6-.678c2.239-.162,5.6-.162,5.6-.162H36s3.359,0,5.6.162a2.287,2.287,0,0,1,1.6.678,3.455,3.455,0,0,1,.636,1.588,24.208,24.208,0,0,1,.16,2.59Z" fill="#bfda69"/><path d="M34.348,506.075l4.323-2.24-4.323-2.256Z" fill="#bfda69"/></g></svg>