<svg xmlns="http://www.w3.org/2000/svg" width="32" height="32" viewBox="0 0 32 32"><path d="M72,228v32h32V228Zm22.362,12.737c.006.141.01.282.01.425A9.337,9.337,0,0,1,80,249.027a6.744,6.744,0,0,0,.783.046,6.585,6.585,0,0,0,4.077-1.406,3.285,3.285,0,0,1-3.067-2.279,3.315,3.315,0,0,0,1.483-.057,3.283,3.283,0,0,1-2.633-3.218v-.042a3.27,3.27,0,0,0,1.487.411,3.285,3.285,0,0,1-1.016-4.383,9.32,9.32,0,0,0,6.766,3.43,3.285,3.285,0,0,1,5.593-2.994,6.568,6.568,0,0,0,2.085-.8,3.3,3.3,0,0,1-1.443,1.816A6.587,6.587,0,0,0,96,239.038,6.682,6.682,0,0,1,94.362,240.737Z" transform="translate(-72 -228)" fill="currentColor"/></svg>
