<svg xmlns="http://www.w3.org/2000/svg" width="31" height="31" viewBox="0 0 31 31"><circle cx="3.119" cy="3.119" r="3.119" transform="translate(12.381 12.381)" fill="currentColor"/><path d="M144.272,131.46a3.1,3.1,0,0,0-1.776-1.776,5.179,5.179,0,0,0-1.737-.322c-.987-.045-1.283-.055-3.781-.055s-2.794.01-3.781.055a5.179,5.179,0,0,0-1.737.322,3.1,3.1,0,0,0-1.776,1.776,5.179,5.179,0,0,0-.322,1.737c-.045.987-.055,1.283-.055,3.781s.01,2.794.055,3.781a5.179,5.179,0,0,0,.322,1.737,3.1,3.1,0,0,0,1.776,1.776,5.179,5.179,0,0,0,1.737.322c.986.045,1.282.055,3.781.055s2.794-.01,3.781-.055a5.179,5.179,0,0,0,1.737-.322,3.1,3.1,0,0,0,1.776-1.776,5.179,5.179,0,0,0,.322-1.737c.045-.987.055-1.283.055-3.781s-.01-2.794-.055-3.781A5.179,5.179,0,0,0,144.272,131.46Zm-7.294,10.323a4.8,4.8,0,1,1,4.8-4.8A4.8,4.8,0,0,1,136.978,141.783Zm4.995-8.677a1.123,1.123,0,1,1,1.123-1.123A1.123,1.123,0,0,1,141.973,133.106Z" transform="translate(-121.478 -121.478)" fill="currentColor"/><path d="M15.5,0A15.5,15.5,0,1,0,31,15.5,15.5,15.5,0,0,0,15.5,0Zm9.3,19.358a6.868,6.868,0,0,1-.435,2.271,4.784,4.784,0,0,1-2.736,2.736,6.868,6.868,0,0,1-2.271.435c-1,.046-1.317.056-3.858.056s-2.86-.011-3.858-.056a6.868,6.868,0,0,1-2.271-.435,4.784,4.784,0,0,1-2.736-2.736A6.867,6.867,0,0,1,6.2,19.358c-.046-1-.056-1.317-.056-3.858s.011-2.86.056-3.858a6.867,6.867,0,0,1,.435-2.271A4.784,4.784,0,0,1,9.371,6.634,6.867,6.867,0,0,1,11.642,6.2c1-.046,1.317-.056,3.858-.056s2.86.011,3.858.056a6.867,6.867,0,0,1,2.271.435,4.784,4.784,0,0,1,2.736,2.736,6.868,6.868,0,0,1,.435,2.271c.046,1,.056,1.317.056,3.858S24.846,18.36,24.8,19.358Z" fill="currentColor"/></svg>
