<svg xmlns="http://www.w3.org/2000/svg" width="32.336" height="32.336" viewBox="0 0 32.336 32.336"><g transform="translate(-143.146 -114.179)"><path d="M159.314,114.179a16.168,16.168,0,1,0,16.168,16.168A16.168,16.168,0,0,0,159.314,114.179Zm-8.524,10.2h17.048a.566.566,0,0,1,.437.187l-8.18,5.932a1.224,1.224,0,0,1-1.561,0l-8.243-5.932A.709.709,0,0,1,150.791,124.384Zm-.749,1.374,5.558,4.059-5.558,4.746Zm17.8,10.553H150.791a.733.733,0,0,1-.625-.375l6.369-5.5,1.311,1a2.533,2.533,0,0,0,2.935,0l1.311-1,6.369,5.5A.827.827,0,0,1,167.838,136.311Zm.749-1.749-5.62-4.746,5.62-4.059Z" fill="#bfda69"/></g></svg>