<svg xmlns="http://www.w3.org/2000/svg" width="31" height="31"><circle cx="3.119" cy="3.119" r="3.119" transform="translate(12.381 12.381)" fill="currentColor"/><path d="M22.794 9.982a3.1 3.1 0 00-1.776-1.776 5.179 5.179 0 00-1.737-.322c-.987-.045-1.283-.055-3.781-.055s-2.794.01-3.781.055a5.179 5.179 0 00-1.737.322 3.1 3.1 0 00-1.776 1.776 5.179 5.179 0 00-.322 1.737c-.045.987-.055 1.283-.055 3.781s.01 2.794.055 3.781a5.179 5.179 0 00.322 1.737 3.1 3.1 0 001.776 1.776 5.179 5.179 0 001.737.322c.986.045 1.282.055 3.781.055s2.794-.01 3.781-.055a5.179 5.179 0 001.737-.322 3.1 3.1 0 001.776-1.776 5.179 5.179 0 00.322-1.737c.045-.987.055-1.283.055-3.781s-.01-2.794-.055-3.781a5.179 5.179 0 00-.322-1.737zM15.5 20.305a4.8 4.8 0 114.8-4.8 4.8 4.8 0 01-4.8 4.8zm4.995-8.677a1.123 1.123 0 111.123-1.123 1.123 1.123 0 01-1.123 1.123z" fill="currentColor"/><path d="M15.5 0A15.5 15.5 0 1031 15.5 15.5 15.5 0 0015.5 0zm9.3 19.358a6.868 6.868 0 01-.435 2.271 4.784 4.784 0 01-2.736 2.736 6.868 6.868 0 01-2.271.435c-1 .046-1.317.056-3.858.056s-2.86-.011-3.858-.056a6.868 6.868 0 01-2.271-.435 4.784 4.784 0 01-2.736-2.736 6.867 6.867 0 01-.435-2.271c-.046-1-.056-1.317-.056-3.858s.011-2.86.056-3.858a6.867 6.867 0 01.435-2.271 4.784 4.784 0 012.736-2.737 6.867 6.867 0 012.271-.434c1-.046 1.317-.056 3.858-.056s2.86.011 3.858.056a6.867 6.867 0 012.271.435 4.784 4.784 0 012.736 2.736 6.868 6.868 0 01.435 2.271c.046 1 .056 1.317.056 3.858s-.01 2.86-.056 3.858z" fill="currentColor"/></svg>