<svg xmlns="http://www.w3.org/2000/svg" width="32" height="32"><path d="M0 0v32h32V0zm22.362 12.737c.006.141.01.282.01.425A9.337 9.337 0 018 21.027a6.744 6.744 0 00.783.046 6.585 6.585 0 004.077-1.406 3.285 3.285 0 01-3.067-2.279 3.315 3.315 0 001.483-.057 3.283 3.283 0 01-2.633-3.218v-.042a3.27 3.27 0 001.487.411 3.285 3.285 0 01-1.016-4.383 9.32 9.32 0 006.766 3.43 3.285 3.285 0 015.593-2.994 6.568 6.568 0 002.085-.8 3.3 3.3 0 01-1.443 1.816A6.587 6.587 0 0024 11.038a6.682 6.682 0 01-1.638 1.699z" fill="currentColor"/></svg>