<svg xmlns="http://www.w3.org/2000/svg" width="32" height="32"><g fill="#bfda69"><path d="M16 0a16 16 0 1016 16A16 16 0 0016 0zm8 16.6a24.208 24.208 0 01-.16 2.59 3.459 3.459 0 01-.636 1.588 2.292 2.292 0 01-1.6.678c-2.239.162-5.6.167-5.6.167s-4.16-.038-5.44-.161a2.715 2.715 0 01-1.764-.684 3.459 3.459 0 01-.636-1.588A24.208 24.208 0 018 16.6v-1.213a24.208 24.208 0 01.16-2.59 3.455 3.455 0 01.636-1.588 2.287 2.287 0 011.6-.678c2.239-.162 5.6-.162 5.6-.162H16s3.359 0 5.6.162a2.287 2.287 0 011.6.678 3.455 3.455 0 01.636 1.588 24.208 24.208 0 01.16 2.59z"/><path d="M14.348 18.075l4.323-2.24-4.323-2.256z"/></g></svg>